<svg width="330" height="450" viewBox="0 0 330 450" fill="none" xmlns="http://www.w3.org/2000/svg">
<path opacity="0.6" fill-rule="evenodd" clip-rule="evenodd" d="M24 0H37.5C38.8807 0 40 1.11929 40 2.5C40 3.88071 38.8807 5 37.5 5H24C13.5066 5 5 13.5066 5 24V37.5C5 38.8807 3.88071 40 2.5 40C1.11929 40 0 38.8807 0 37.5V24C0 10.7452 10.7452 0 24 0ZM2.5 410C1.11929 410 0 411.119 0 412.5V426C0 439.255 10.7452 450 24 450H37.5C38.8807 450 40 448.881 40 447.5C40 446.119 38.8807 445 37.5 445H24C13.5066 445 5 436.493 5 426V412.5C5 411.119 3.88071 410 2.5 410ZM327.5 410C326.119 410 325 411.119 325 412.5V426C325 436.493 316.493 445 306 445H292.5C291.119 445 290 446.119 290 447.5C290 448.881 291.119 450 292.5 450H306C319.255 450 330 439.255 330 426V412.5C330 411.119 328.881 410 327.5 410ZM327.5 40C328.881 40 330 38.8807 330 37.5V24C330 10.7452 319.255 0 306 0H292.5C291.119 0 290 1.11929 290 2.5C290 3.88071 291.119 5 292.5 5H306C316.493 5 325 13.5066 325 24V37.5C325 38.8807 326.119 40 327.5 40Z" fill="white"/>
</svg>
