<svg width="44" height="44" viewBox="0 0 44 44" fill="none" xmlns="http://www.w3.org/2000/svg">
<path fill-rule="evenodd" clip-rule="evenodd" d="M22 37C30.2843 37 37 30.2843 37 22C37 13.7157 30.2843 7 22 7C13.7157 7 7 13.7157 7 22C7 30.2843 13.7157 37 22 37Z" fill="#767680" fill-opacity="0.12"/>
<path d="M26.5949 17.1961L26.7071 17.2929C27.0621 17.6479 27.0944 18.2035 26.8039 18.5949L26.7071 18.7071L23.4147 22L26.7071 25.2929C27.0621 25.6479 27.0944 26.2035 26.8039 26.5949L26.7071 26.7071C26.3521 27.0621 25.7965 27.0944 25.4051 26.8039L25.2929 26.7071L22 23.4147L18.7071 26.7071C18.3521 27.0621 17.7965 27.0944 17.4051 26.8039L17.2929 26.7071C16.9379 26.3521 16.9056 25.7965 17.1961 25.4051L17.2929 25.2929L20.5853 22L17.2929 18.7071C16.9379 18.3521 16.9056 17.7965 17.1961 17.4051L17.2929 17.2929C17.6479 16.9379 18.2035 16.9056 18.5949 17.1961L18.7071 17.2929L22 20.5853L25.2929 17.2929C25.6479 16.9379 26.2035 16.9056 26.5949 17.1961Z" fill="#212121"/>
</svg>
