<svg width="20" height="20" viewBox="0 0 20 20" fill="none" xmlns="http://www.w3.org/2000/svg">
<path d="M10 19.3726C15.2881 19.3726 19.6606 15 19.6606 9.71191C19.6606 4.42383 15.2808 0.0512695 9.99268 0.0512695C4.70459 0.0512695 0.339355 4.42383 0.339355 9.71191C0.339355 15 4.70459 19.3726 10 19.3726ZM10 17.7026C5.56885 17.7026 2.0166 14.1357 2.0166 9.71191C2.0166 5.28809 5.56885 1.72119 9.99268 1.72119C14.4165 1.72119 17.9834 5.28809 17.9834 9.71191C17.9907 14.1357 14.4238 17.7026 10 17.7026ZM4.96826 7.80762H15.0464C15.4565 7.80762 15.7422 7.54395 15.7422 7.15576C15.7422 6.76025 15.4565 6.49658 15.0464 6.49658H4.96826C4.55078 6.49658 4.25781 6.76025 4.25781 7.15576C4.25781 7.54395 4.55078 7.80762 4.96826 7.80762ZM6.28662 10.9277H13.7207C14.1309 10.9277 14.4238 10.6641 14.4238 10.2686C14.4238 9.88037 14.1309 9.6167 13.7207 9.6167H6.28662C5.87646 9.6167 5.5835 9.88037 5.5835 10.2686C5.5835 10.6641 5.87646 10.9277 6.28662 10.9277ZM7.66357 14.0552H12.3438C12.7539 14.0552 13.0469 13.7915 13.0469 13.396C13.0469 13.0078 12.7539 12.7441 12.3438 12.7441H7.66357C7.25342 12.7441 6.96045 13.0078 6.96045 13.396C6.96045 13.7915 7.25342 14.0552 7.66357 14.0552Z" fill="#212121"/>
</svg>
