<?xml version="1.0" encoding="UTF-8"?>
<svg xmlns="http://www.w3.org/2000/svg" xmlns:xlink="http://www.w3.org/1999/xlink" width="24px" height="24px" viewBox="0 0 24 24" version="1.1">
<g id="surface1">
<path style=" stroke:none;fill-rule:nonzero;fill:rgb(12.941176%,12.941176%,12.941176%);fill-opacity:1;" d="M 3.425781 2.574219 C 3.191406 2.339844 2.808594 2.339844 2.574219 2.574219 C 2.339844 2.808594 2.339844 3.191406 2.574219 3.425781 L 6.773438 7.621094 C 4.765625 8.988281 3.269531 11.128906 2.734375 13.675781 C 2.667969 14 2.875 14.320312 3.199219 14.386719 C 3.523438 14.457031 3.84375 14.246094 3.910156 13.921875 C 4.394531 11.601562 5.789062 9.675781 7.640625 8.488281 L 9.539062 10.386719 C 8.476562 11.148438 7.789062 12.394531 7.789062 13.800781 C 7.789062 16.121094 9.667969 18 11.988281 18 C 13.394531 18 14.636719 17.308594 15.398438 16.25 L 20.574219 21.425781 C 20.808594 21.660156 21.191406 21.660156 21.425781 21.425781 C 21.660156 21.191406 21.660156 20.808594 21.425781 20.574219 Z M 3.425781 2.574219 "/>
<path style=" stroke:none;fill-rule:nonzero;fill:rgb(12.941176%,12.941176%,12.941176%);fill-opacity:1;" d="M 12.148438 9.601562 L 16.183594 13.640625 C 16.101562 11.449219 14.339844 9.6875 12.148438 9.601562 Z M 12.148438 9.601562 "/>
<path style=" stroke:none;fill-rule:nonzero;fill:rgb(12.941176%,12.941176%,12.941176%);fill-opacity:1;" d="M 9.039062 6.492188 L 10 7.457031 C 10.644531 7.289062 11.316406 7.199219 12 7.199219 C 15.847656 7.199219 19.269531 9.992188 20.089844 13.921875 C 20.15625 14.246094 20.476562 14.457031 20.800781 14.386719 C 21.125 14.320312 21.332031 14 21.265625 13.675781 C 20.332031 9.207031 16.433594 6 12 6 C 10.972656 6 9.976562 6.171875 9.039062 6.492188 Z M 9.039062 6.492188 "/>
</g>
</svg>
