<svg width="48" height="32" viewBox="0 0 48 32" fill="none" xmlns="http://www.w3.org/2000/svg">
<path d="M22.5919 5.49635C23.4146 4.83626 24.5854 4.83626 25.4081 5.49635L33.1581 11.7147C33.6903 12.1417 34 12.7872 34 13.4696V24.75C34 25.9926 32.9926 27 31.75 27H28.25C27.0074 27 26 25.9926 26 24.75V19.25C26 18.8358 25.6642 18.5 25.25 18.5H22.75C22.3358 18.5 22 18.8358 22 19.25V24.75C22 25.9926 20.9926 27 19.75 27H16.25C15.0074 27 14 25.9926 14 24.75V13.4696C14 12.7872 14.3097 12.1417 14.8419 11.7147L22.5919 5.49635ZM24.4694 6.87C24.1951 6.64997 23.8049 6.64997 23.5306 6.87L15.98 12.8846C15.8026 13.027 15.7 13.4425 15.7 13.67V24.55C15.7 24.9642 16.0358 25.3 16.45 25.3H19.55C19.9642 25.3 20.3 24.9642 20.3 24.55V19.25C20.3 18.0074 21.3074 16.8 22.55 16.8H25.45C26.6926 16.8 27.7 18.0074 27.7 19.25V24.55C27.7 24.9642 28.0358 25.3 28.45 25.3H31.55C31.9642 25.3 32.3 24.9642 32.3 24.55V13.77C32.3 13.5425 32.1974 13.027 32.02 12.8846L24.4694 6.87Z" fill="#999999"/>
</svg>
