<svg width="48" height="32" viewBox="0 0 48 32" fill="none" xmlns="http://www.w3.org/2000/svg">
<path d="M22.5919 5.49635C23.4146 4.83626 24.5854 4.83626 25.4081 5.49635L33.1581 11.7147C33.6903 12.1417 34 12.7872 34 13.4696V24.75C34 25.9926 32.9926 27 31.75 27H28.25C27.0074 27 26 25.9926 26 24.75V19.25C26 18.8358 25.6642 18.5 25.25 18.5H22.75C22.3358 18.5 22 18.8358 22 19.25V24.75C22 25.9926 20.9926 27 19.75 27H16.25C15.0074 27 14 25.9926 14 24.75V13.4696C14 12.7872 14.3097 12.1417 14.8419 11.7147L22.5919 5.49635Z" fill="#212121"/>
</svg>
