<svg width="28" height="28" viewBox="0 0 28 28" fill="none" xmlns="http://www.w3.org/2000/svg">
<path d="M14 2.32893C18.7249 2.32893 22.5828 6.05613 22.7451 10.7862L22.75 11.0789V15.8587L24.36 19.5407C24.4406 19.725 24.4821 19.9239 24.4821 20.125C24.4821 20.9304 23.8292 21.5833 23.0238 21.5833L17.5 21.5851C17.5 23.5181 15.933 25.0851 14 25.0851C12.136 25.0851 10.6124 23.628 10.5059 21.7907L10.4995 21.5824L4.98733 21.5833C4.78743 21.5833 4.58967 21.5422 4.40633 21.4626C3.66759 21.1417 3.32885 20.2827 3.64973 19.544L5.24999 15.8598V11.0788C5.25068 6.23155 9.16076 2.32893 14 2.32893ZM15.7495 21.5824L12.25 21.5851C12.25 22.5516 13.0335 23.3351 14 23.3351C14.9096 23.3351 15.6572 22.641 15.742 21.7536L15.7495 21.5824ZM14 4.07893C10.1265 4.07893 7.00054 7.19889 6.99999 11.0789V16.2235L5.43201 19.8333H22.5779L21 16.2246L21.0001 11.0939L20.9957 10.8312C20.8662 7.05881 17.7818 4.07893 14 4.07893Z" fill="#212121"/>
</svg>
