<svg width="48" height="32" viewBox="0 0 48 32" fill="none" xmlns="http://www.w3.org/2000/svg">
<path d="M24.8758 4.33331C23.9013 4.33331 22.9641 4.70856 22.2589 5.38118L14.3121 12.9604C13.2437 13.9795 13.2256 15.679 14.2721 16.7206L21.5715 23.9852C22.5915 25.0003 24.2386 25.005 25.2644 23.9957L33.3673 16.0224C34.0917 15.3096 34.4996 14.3359 34.4996 13.3197V7.54165C34.4996 5.76973 33.0632 4.33331 31.2913 4.33331H24.8758ZM28.9583 11.0416C28.1529 11.0416 27.5 10.3887 27.5 9.58331C27.5 8.7779 28.1529 8.12498 28.9583 8.12498C29.7638 8.12498 30.4167 8.7779 30.4167 9.58331C30.4167 10.3887 29.7638 11.0416 28.9583 11.0416ZM32.4651 18.5473L34.1861 16.8539C34.2386 16.8022 34.29 16.7494 34.34 16.6956C34.7015 17.8133 34.4357 19.0932 33.5337 19.9775L27.3114 26.0772C25.1493 28.1968 21.6863 28.1887 19.5342 26.0591L14.4517 21.0299C13.5593 20.1469 13.2944 18.8708 13.6574 17.7543L15.5577 19.6455C15.5958 19.6943 15.6374 19.7412 15.6826 19.7859L18.4957 22.5696L20.749 24.8121C21.9801 26.0374 23.8438 26.2435 25.2877 25.4275C25.5729 25.2673 25.8418 25.0673 26.0863 24.8276L32.3086 18.7278C32.3665 18.671 32.4187 18.6106 32.4651 18.5473Z" fill="#212121"/>
</svg>
