<svg width="48" height="32" viewBox="0 0 48 32" fill="none" xmlns="http://www.w3.org/2000/svg">
<path d="M30.4166 9.58331C30.4166 10.3887 29.7637 11.0416 28.9583 11.0416C28.1529 11.0416 27.5 10.3887 27.5 9.58331C27.5 8.7779 28.1529 8.12498 28.9583 8.12498C29.7637 8.12498 30.4166 8.7779 30.4166 9.58331ZM22.2589 5.38118C22.9641 4.70856 23.9012 4.33331 24.8758 4.33331H31.2912C33.0632 4.33331 34.4996 5.76973 34.4996 7.54165V13.3197C34.4996 14.3359 34.0917 15.3096 33.3673 16.0224L25.2644 23.9957C24.2386 25.005 22.5915 25.0003 21.5715 23.9852L14.2721 16.7206C13.2256 15.679 13.2437 13.9795 14.3121 12.9604L22.2589 5.38118ZM24.8758 6.08331C24.351 6.08331 23.8464 6.28537 23.4667 6.64755L15.5199 14.2268C15.1638 14.5665 15.1578 15.133 15.5066 15.4802L22.806 22.7448C23.146 23.0832 23.695 23.0847 24.0369 22.7483L32.1399 14.775C32.5299 14.3912 32.7496 13.8669 32.7496 13.3197V7.54165C32.7496 6.73623 32.0967 6.08331 31.2912 6.08331H24.8758ZM34.186 16.8539L32.4651 18.5473C32.4187 18.6106 32.3665 18.671 32.3086 18.7278L26.0863 24.8276C25.8417 25.0673 25.5728 25.2673 25.2877 25.4275C23.8438 26.2435 21.9801 26.0374 20.749 24.8121L18.4957 22.5696L15.6826 19.7859C15.6374 19.7412 15.5958 19.6943 15.5577 19.6455L13.6574 17.7543C13.2943 18.8708 13.5593 20.1469 14.4517 21.0299L19.5341 26.0591C21.6863 28.1887 25.1493 28.1968 27.3114 26.0772L33.5337 19.9775C34.4357 19.0932 34.7015 17.8133 34.34 16.6956C34.2899 16.7494 34.2386 16.8022 34.186 16.8539Z" fill="#999999"/>
</svg>
