<svg width="18" height="14" viewBox="0 0 18 14" fill="none" xmlns="http://www.w3.org/2000/svg">
<path d="M4.33789 0.741211L0.84668 4.31299C0.685547 4.46875 0.588867 4.69971 0.588867 4.91455C0.588867 5.39795 0.932617 5.73633 1.41064 5.73633C1.63623 5.73633 1.82959 5.65576 1.98535 5.49463L3.43018 4.00146L4.16064 3.16357L4.12305 4.49561V12.9497C4.12305 13.4277 4.47217 13.7822 4.9502 13.7822C5.42822 13.7822 5.77734 13.4277 5.77734 12.9497V4.49561L5.73975 3.16357L6.47021 4.00146L7.91504 5.49463C8.0708 5.65576 8.26416 5.73633 8.48975 5.73633C8.96777 5.73633 9.31152 5.39795 9.31152 4.91455C9.31152 4.69971 9.20947 4.46875 9.05371 4.31299L5.5625 0.741211C5.22412 0.386719 4.68164 0.381348 4.33789 0.741211ZM13.6567 13.5137L17.1479 9.93652C17.3091 9.77539 17.4058 9.54443 17.4058 9.32959C17.4058 8.85156 17.062 8.51318 16.584 8.51318C16.3584 8.51318 16.165 8.58838 16.0093 8.74951L14.5645 10.248L13.834 11.0806L13.8716 9.74854V1.2998C13.8716 0.827148 13.5225 0.472656 13.0444 0.472656C12.5664 0.472656 12.2173 0.827148 12.2173 1.2998V9.74854L12.2549 11.0806L11.5244 10.248L10.0796 8.74951C9.92383 8.58838 9.73047 8.51318 9.50488 8.51318C9.02686 8.51318 8.68311 8.85156 8.68311 9.32959C8.68311 9.54443 8.77979 9.77539 8.94092 9.93652L12.4321 13.5137C12.7705 13.8682 13.313 13.8735 13.6567 13.5137Z" fill="#212121"/>
</svg>
