<svg width="46" height="46" viewBox="0 0 46 46" fill="none" xmlns="http://www.w3.org/2000/svg">
<g filter="url(#filter0_b_260_637)">
<rect width="46" height="46" rx="23" fill="#202020" fill-opacity="0.92"/>
</g>
<path d="M34.439 16.439L29.561 11.561C29.336 11.336 29.06 11.171 28.76 11.081V11H11.96C11.429 11 11 11.429 11 11.96V34.04C11 34.571 11.429 35 11.96 35H34.04C34.571 35 35 34.571 35 34.04V17.795C35 17.285 34.799 16.799 34.439 16.439ZM19.16 13.16H26.84V16.28H19.16V13.16ZM32.84 32.84H13.16V13.16H17.24V17.24C17.24 17.771 17.669 18.2 18.2 18.2H27.8C28.331 18.2 28.76 17.771 28.76 17.24V13.814L32.84 17.894V32.84ZM23 20.9C20.615 20.9 18.68 22.835 18.68 25.22C18.68 27.605 20.615 29.54 23 29.54C25.385 29.54 27.32 27.605 27.32 25.22C27.32 22.835 25.385 20.9 23 20.9ZM23 27.62C21.674 27.62 20.6 26.546 20.6 25.22C20.6 23.894 21.674 22.82 23 22.82C24.326 22.82 25.4 23.894 25.4 25.22C25.4 26.546 24.326 27.62 23 27.62Z" fill="#C4C4C4"/>
<defs>
<filter id="filter0_b_260_637" x="-54" y="-54" width="154" height="154" filterUnits="userSpaceOnUse" color-interpolation-filters="sRGB">
<feFlood flood-opacity="0" result="BackgroundImageFix"/>
<feGaussianBlur in="BackgroundImage" stdDeviation="27"/>
<feComposite in2="SourceAlpha" operator="in" result="effect1_backgroundBlur_260_637"/>
<feBlend mode="normal" in="SourceGraphic" in2="effect1_backgroundBlur_260_637" result="shape"/>
</filter>
</defs>
</svg>
