<svg width="48" height="32" viewBox="0 0 48 32" fill="none" xmlns="http://www.w3.org/2000/svg">
<path d="M18.1667 10.1666V7.83331C18.1667 5.90032 19.7337 4.33331 21.6667 4.33331C22.5631 4.33331 23.3808 4.67031 24 5.22453C24.6192 4.67031 25.4369 4.33331 26.3333 4.33331C28.2663 4.33331 29.8333 5.90032 29.8333 7.83331V10.1666H31.5833C32.5498 10.1666 33.3333 10.9501 33.3333 11.9166V23.5891C33.3333 25.8411 31.5078 27.6666 29.2558 27.6666H19.3333C16.756 27.6666 14.6667 25.5773 14.6667 23V11.9166C14.6667 10.9501 15.4502 10.1666 16.4167 10.1666H18.1667ZM25.9074 25.9166C25.4478 25.2567 25.1783 24.4544 25.1783 23.5891V11.9166H16.4167V23C16.4167 24.6108 17.7225 25.9166 19.3333 25.9166H25.9074ZM23.4167 10.1666V7.83331C23.4167 6.86681 22.6332 6.08331 21.6667 6.08331C20.7002 6.08331 19.9167 6.86681 19.9167 7.83331V10.1666H23.4167ZM25.1667 10.1666H28.0833V7.83331C28.0833 6.86681 27.2998 6.08331 26.3333 6.08331C25.7909 6.08331 25.3061 6.33014 24.9851 6.7176C25.1028 7.06802 25.1667 7.44321 25.1667 7.83331V10.1666ZM26.9283 23.5891C26.9283 24.8746 27.9704 25.9166 29.2558 25.9166C30.5413 25.9166 31.5833 24.8746 31.5833 23.5891V11.9166H26.9283V23.5891Z" fill="#999999"/>
</svg>
