<svg width="48" height="32" viewBox="0 0 48 32" fill="none" xmlns="http://www.w3.org/2000/svg">
<path d="M18.1667 10.1666V7.83331C18.1667 5.90032 19.7337 4.33331 21.6667 4.33331C22.5631 4.33331 23.3808 4.67031 24 5.22453C24.6192 4.67031 25.4369 4.33331 26.3333 4.33331C28.2663 4.33331 29.8333 5.90032 29.8333 7.83331V10.1666H31.5833C32.5498 10.1666 33.3333 10.9501 33.3333 11.9166V23C33.3333 24.6413 32.4859 26.0848 31.2048 26.9167L30.5681 26.8048C29.6647 26.6461 28.7324 26.148 28.0308 25.437C27.3303 24.727 26.9167 23.8662 26.9167 23V10.1666H28.0833V7.83331C28.0833 6.86681 27.2998 6.08331 26.3333 6.08331C25.7909 6.08331 25.3061 6.33013 24.9851 6.71759C25.1028 7.06801 25.1667 7.44321 25.1667 7.83331V23C25.1667 24.4337 25.8457 25.714 26.7852 26.6661C27.1602 27.0462 27.5858 27.3838 28.0438 27.6666H19.3333C16.756 27.6666 14.6667 25.5773 14.6667 23V11.9166C14.6667 10.9501 15.4502 10.1666 16.4167 10.1666H18.1667ZM19.9167 7.83331V10.1666H23.4167V7.83331C23.4167 6.86681 22.6332 6.08331 21.6667 6.08331C20.7002 6.08331 19.9167 6.86681 19.9167 7.83331Z" fill="#212121"/>
</svg>
